<svg width="260" height="260" viewBox="0 0 260 260" fill="none" xmlns="http://www.w3.org/2000/svg">
<path d="M6.79403 123.323V41.505H29.4858V123.323H6.79403ZM18.1932 30.9581C14.8196 30.9581 11.9254 29.8395 9.51065 27.6023C7.13139 25.3295 5.94176 22.6129 5.94176 19.4524C5.94176 16.3274 7.13139 13.6463 9.51065 11.4091C11.9254 9.13637 14.8196 8 18.1932 8C21.5668 8 24.4432 9.13637 26.8224 11.4091C29.2372 13.6463 30.4446 16.3274 30.4446 19.4524C30.4446 22.6129 29.2372 25.3295 26.8224 27.6023C24.4432 29.8395 21.5668 30.9581 18.1932 30.9581Z" fill="white"/>
<path d="M47.6632 123.323V41.505H69.2896V55.9403H70.2484C71.9529 51.1463 74.7939 47.3643 78.7711 44.5945C82.7484 41.8246 87.5069 40.4396 93.0467 40.4396C98.6575 40.4396 103.434 41.8423 107.376 44.6477C111.317 47.4176 113.945 51.1818 115.259 55.9403H116.111C117.78 51.2528 120.799 47.5064 125.167 44.701C129.57 41.8601 134.773 40.4396 140.774 40.4396C148.409 40.4396 154.606 42.8722 159.364 47.7372C164.158 52.5668 166.555 59.4205 166.555 68.2983V123.323H143.917V72.7727C143.917 68.2273 142.709 64.8182 140.295 62.5455C137.88 60.2727 134.861 59.1364 131.239 59.1364C127.12 59.1364 123.906 60.4503 121.598 63.0781C119.29 65.6705 118.135 69.0973 118.135 73.3587V123.323H96.1362V72.2933C96.1362 68.2805 94.9821 65.0845 92.6738 62.7053C90.4011 60.326 87.4004 59.1364 83.6717 59.1364C81.1504 59.1364 78.8777 59.7756 76.8535 61.054C74.8649 62.2969 73.2846 64.0547 72.1127 66.3274C70.9409 68.5646 70.3549 71.1925 70.3549 74.2109V123.323H47.6632Z" fill="white"/>
<path d="M207.811 124.868C202.59 124.868 197.938 123.962 193.855 122.151C189.771 120.305 186.539 117.588 184.16 114.001C181.816 110.379 180.644 105.869 180.644 100.472C180.644 95.9261 181.479 92.1087 183.148 89.0192C184.817 85.9297 187.09 83.4439 189.966 81.5618C192.843 79.6797 196.11 78.2592 199.767 77.3004C203.46 76.3416 207.331 75.6669 211.379 75.2763C216.138 74.7791 219.973 74.3175 222.885 73.8913C225.797 73.4297 227.91 72.755 229.224 71.8672C230.538 70.9794 231.195 69.6655 231.195 67.9254V67.6058C231.195 64.2322 230.129 61.6222 227.999 59.7756C225.904 57.929 222.921 57.0057 219.05 57.0057C214.966 57.0057 211.717 57.9112 209.302 59.7223C206.887 61.4979 205.289 63.7351 204.508 66.434L183.521 64.7294C184.586 59.7578 186.681 55.4609 189.806 51.8388C192.931 48.1811 196.962 45.3757 201.898 43.4226C206.869 41.434 212.622 40.4396 219.156 40.4396C223.702 40.4396 228.052 40.9723 232.207 42.0376C236.397 43.103 240.108 44.7543 243.34 46.9915C246.607 49.2287 249.181 52.1051 251.063 55.6207C252.945 59.1009 253.887 63.2734 253.887 68.1385V123.323H232.367V111.977H231.727C230.414 114.534 228.656 116.789 226.454 118.742C224.252 120.66 221.607 122.169 218.517 123.27C215.428 124.335 211.859 124.868 207.811 124.868ZM214.309 109.207C217.647 109.207 220.595 108.55 223.151 107.237C225.708 105.887 227.715 104.076 229.171 101.803C230.627 99.5305 231.355 96.956 231.355 94.0796V85.397C230.644 85.8587 229.668 86.2848 228.425 86.6754C227.218 87.0305 225.85 87.3679 224.323 87.6875C222.796 87.9716 221.269 88.2379 219.742 88.4865C218.215 88.6996 216.83 88.8949 215.588 89.0724C212.924 89.4631 210.598 90.0845 208.61 90.9368C206.621 91.7891 205.076 92.9432 203.975 94.3992C202.874 95.8196 202.324 97.5952 202.324 99.7259C202.324 102.815 203.443 105.177 205.68 106.81C207.953 108.408 210.829 109.207 214.309 109.207Z" fill="white"/>
<path d="M41.897 252.71C34.5462 252.71 28.2429 251.697 22.9872 249.673C17.767 247.685 13.6122 244.968 10.5227 241.523C7.43324 238.079 5.42685 234.208 4.50355 229.911L25.4908 227.088C26.13 228.722 27.142 230.249 28.527 231.669C29.9119 233.089 31.7408 234.226 34.0135 235.078C36.3217 235.966 39.1271 236.41 42.4297 236.41C47.3658 236.41 51.4318 235.202 54.6278 232.788C57.8594 230.408 59.4751 226.413 59.4751 220.803V205.835H58.5163C57.522 208.107 56.0305 210.256 54.0419 212.28C52.0533 214.304 49.4964 215.955 46.3714 217.234C43.2464 218.512 39.5178 219.151 35.1854 219.151C29.0419 219.151 23.4489 217.731 18.4062 214.89C13.3991 212.014 9.40412 207.628 6.42116 201.733C3.47372 195.803 2 188.31 2 179.254C2 169.986 3.50923 162.244 6.5277 156.03C9.54616 149.815 13.5589 145.163 18.5661 142.074C23.6087 138.984 29.1307 137.44 35.1321 137.44C39.7131 137.44 43.5483 138.221 46.6378 139.783C49.7273 141.31 52.2131 143.228 54.0952 145.536C56.0128 147.809 57.4865 150.046 58.5163 152.248H59.3686V138.505H81.9006V221.122C81.9006 228.082 80.196 233.906 76.7869 238.594C73.3778 243.281 68.6548 246.797 62.6179 249.141C56.6165 251.52 49.7095 252.71 41.897 252.71ZM42.3764 202.106C46.0341 202.106 49.1236 201.2 51.6449 199.389C54.2017 197.543 56.1548 194.915 57.5043 191.506C58.8892 188.061 59.5817 183.942 59.5817 179.148C59.5817 174.354 58.907 170.199 57.5575 166.683C56.2081 163.132 54.255 160.38 51.6982 158.427C49.1413 156.474 46.0341 155.497 42.3764 155.497C38.6477 155.497 35.505 156.509 32.9482 158.533C30.3913 160.522 28.456 163.292 27.142 166.843C25.8281 170.394 25.1712 174.496 25.1712 179.148C25.1712 183.871 25.8281 187.955 27.142 191.399C28.4915 194.808 30.4268 197.454 32.9482 199.336C35.505 201.183 38.6477 202.106 42.3764 202.106Z" fill="white"/>
<path d="M113.967 251.005C111.091 251.005 108.392 250.774 105.871 250.312C103.385 249.886 101.325 249.336 99.6918 248.661L104.805 231.722C107.469 232.539 109.866 232.983 111.996 233.054C114.163 233.125 116.027 232.628 117.589 231.562C119.188 230.497 120.484 228.686 121.478 226.129L122.81 222.667L93.4595 138.505H117.323L134.262 198.59H135.114L152.213 138.505H176.237L144.436 229.165C142.909 233.569 140.832 237.404 138.204 240.671C135.611 243.974 132.327 246.513 128.349 248.288C124.372 250.099 119.578 251.005 113.967 251.005Z" fill="white"/>
<path d="M222.179 221.921C213.799 221.921 206.59 220.146 200.553 216.594C194.551 213.008 189.935 208.036 186.703 201.68C183.507 195.323 181.909 188.008 181.909 179.734C181.909 171.353 183.525 164.002 186.757 157.681C190.024 151.325 194.658 146.371 200.659 142.82C206.661 139.233 213.799 137.44 222.073 137.44C229.211 137.44 235.461 138.736 240.823 141.328C246.185 143.92 250.429 147.56 253.554 152.248C256.679 156.935 258.401 162.44 258.721 168.761H237.307C236.703 164.677 235.105 161.392 232.513 158.906C229.956 156.385 226.6 155.124 222.446 155.124C218.93 155.124 215.858 156.083 213.23 158.001C210.638 159.883 208.614 162.635 207.158 166.257C205.702 169.879 204.974 174.265 204.974 179.414C204.974 184.634 205.684 189.073 207.105 192.731C208.561 196.389 210.603 199.176 213.23 201.094C215.858 203.011 218.93 203.97 222.446 203.97C225.038 203.97 227.364 203.438 229.424 202.372C231.519 201.307 233.241 199.762 234.591 197.738C235.975 195.678 236.881 193.21 237.307 190.334H258.721C258.365 196.584 256.661 202.088 253.607 206.847C250.588 211.57 246.416 215.263 241.089 217.926C235.762 220.589 229.459 221.921 222.179 221.921Z" fill="white"/>
</svg>
