<svg width="257" height="245" viewBox="0 0 257 245" fill="none" xmlns="http://www.w3.org/2000/svg">
<path d="M4.79403 115.323V33.505H27.4858V115.323H4.79403ZM16.1932 22.9581C12.8196 22.9581 9.92543 21.8395 7.51065 19.6023C5.13139 17.3295 3.94176 14.6129 3.94176 11.4524C3.94176 8.32742 5.13139 5.64631 7.51065 3.4091C9.92543 1.13637 12.8196 0 16.1932 0C19.5668 0 22.4432 1.13637 24.8224 3.4091C27.2372 5.64631 28.4446 8.32742 28.4446 11.4524C28.4446 14.6129 27.2372 17.3295 24.8224 19.6023C22.4432 21.8395 19.5668 22.9581 16.1932 22.9581Z" fill="black"/>
<path d="M45.6632 115.323V33.505H67.2896V47.9403H68.2484C69.9529 43.1463 72.7939 39.3643 76.7711 36.5945C80.7484 33.8246 85.5069 32.4396 91.0467 32.4396C96.6575 32.4396 101.434 33.8423 105.376 36.6477C109.317 39.4176 111.945 43.1818 113.259 47.9403H114.111C115.78 43.2528 118.799 39.5064 123.167 36.701C127.57 33.8601 132.773 32.4396 138.774 32.4396C146.409 32.4396 152.606 34.8722 157.364 39.7372C162.158 44.5668 164.555 51.4205 164.555 60.2983V115.323H141.917V64.7727C141.917 60.2273 140.709 56.8182 138.295 54.5455C135.88 52.2727 132.861 51.1364 129.239 51.1364C125.12 51.1364 121.906 52.4503 119.598 55.0781C117.29 57.6705 116.135 61.0973 116.135 65.3587V115.323H94.1362V64.2933C94.1362 60.2805 92.9821 57.0845 90.6738 54.7053C88.4011 52.326 85.4004 51.1364 81.6717 51.1364C79.1504 51.1364 76.8777 51.7756 74.8535 53.054C72.8649 54.2969 71.2846 56.0547 70.1127 58.3274C68.9409 60.5646 68.3549 63.1925 68.3549 66.2109V115.323H45.6632Z" fill="black"/>
<path d="M205.811 116.868C200.59 116.868 195.938 115.962 191.855 114.151C187.771 112.305 184.539 109.588 182.16 106.001C179.816 102.379 178.644 97.8693 178.644 92.4716C178.644 87.9261 179.479 84.1087 181.148 81.0192C182.817 77.9297 185.09 75.4439 187.966 73.5618C190.843 71.6797 194.11 70.2592 197.767 69.3004C201.46 68.3416 205.331 67.6669 209.379 67.2763C214.138 66.7791 217.973 66.3175 220.885 65.8913C223.797 65.4297 225.91 64.755 227.224 63.8672C228.538 62.9794 229.195 61.6655 229.195 59.9254V59.6058C229.195 56.2322 228.129 53.6222 225.999 51.7756C223.904 49.929 220.921 49.0057 217.05 49.0057C212.966 49.0057 209.717 49.9112 207.302 51.7223C204.887 53.4979 203.289 55.7351 202.508 58.434L181.521 56.7294C182.586 51.7578 184.681 47.4609 187.806 43.8388C190.931 40.1811 194.962 37.3757 199.898 35.4226C204.869 33.434 210.622 32.4396 217.156 32.4396C221.702 32.4396 226.052 32.9723 230.207 34.0376C234.397 35.103 238.108 36.7543 241.34 38.9915C244.607 41.2287 247.181 44.1051 249.063 47.6207C250.945 51.1009 251.887 55.2734 251.887 60.1385V115.323H230.367V103.977H229.727C228.414 106.534 226.656 108.789 224.454 110.742C222.252 112.66 219.607 114.169 216.517 115.27C213.428 116.335 209.859 116.868 205.811 116.868ZM212.309 101.207C215.647 101.207 218.595 100.55 221.151 99.2365C223.708 97.8871 225.715 96.076 227.171 93.8033C228.627 91.5305 229.355 88.956 229.355 86.0796V77.397C228.644 77.8587 227.668 78.2848 226.425 78.6754C225.218 79.0305 223.85 79.3679 222.323 79.6875C220.796 79.9716 219.269 80.2379 217.742 80.4865C216.215 80.6996 214.83 80.8949 213.588 81.0724C210.924 81.4631 208.598 82.0845 206.61 82.9368C204.621 83.7891 203.076 84.9432 201.975 86.3992C200.874 87.8196 200.324 89.5952 200.324 91.7259C200.324 94.8153 201.443 97.1768 203.68 98.8104C205.953 100.408 208.829 101.207 212.309 101.207Z" fill="black"/>
<path d="M39.897 244.71C32.5462 244.71 26.2429 243.697 20.9872 241.673C15.767 239.685 11.6122 236.968 8.52273 233.523C5.43324 230.079 3.42685 226.208 2.50355 221.911L23.4908 219.088C24.13 220.722 25.142 222.249 26.527 223.669C27.9119 225.089 29.7408 226.226 32.0135 227.078C34.3217 227.966 37.1271 228.41 40.4297 228.41C45.3658 228.41 49.4318 227.202 52.6278 224.788C55.8594 222.408 57.4751 218.413 57.4751 212.803V197.835H56.5163C55.522 200.107 54.0305 202.256 52.0419 204.28C50.0533 206.304 47.4964 207.955 44.3714 209.234C41.2464 210.512 37.5178 211.151 33.1854 211.151C27.0419 211.151 21.4489 209.731 16.4062 206.89C11.3991 204.014 7.40412 199.628 4.42116 193.733C1.47372 187.803 0 180.31 0 171.254C0 161.986 1.50923 154.244 4.5277 148.03C7.54616 141.815 11.5589 137.163 16.5661 134.074C21.6087 130.984 27.1307 129.44 33.1321 129.44C37.7131 129.44 41.5483 130.221 44.6378 131.783C47.7273 133.31 50.2131 135.228 52.0952 137.536C54.0128 139.809 55.4865 142.046 56.5163 144.248H57.3686V130.505H79.9006V213.122C79.9006 220.082 78.196 225.906 74.7869 230.594C71.3778 235.281 66.6548 238.797 60.6179 241.141C54.6165 243.52 47.7095 244.71 39.897 244.71ZM40.3764 194.106C44.0341 194.106 47.1236 193.2 49.6449 191.389C52.2017 189.543 54.1548 186.915 55.5043 183.506C56.8892 180.061 57.5817 175.942 57.5817 171.148C57.5817 166.354 56.907 162.199 55.5575 158.683C54.2081 155.132 52.255 152.38 49.6982 150.427C47.1413 148.474 44.0341 147.497 40.3764 147.497C36.6477 147.497 33.505 148.509 30.9482 150.533C28.3913 152.522 26.456 155.292 25.142 158.843C23.8281 162.394 23.1712 166.496 23.1712 171.148C23.1712 175.871 23.8281 179.955 25.142 183.399C26.4915 186.808 28.4268 189.454 30.9482 191.336C33.505 193.183 36.6477 194.106 40.3764 194.106Z" fill="black"/>
<path d="M111.967 243.005C109.091 243.005 106.392 242.774 103.871 242.312C101.385 241.886 99.3253 241.336 97.6918 240.661L102.805 223.722C105.469 224.539 107.866 224.983 109.996 225.054C112.163 225.125 114.027 224.628 115.589 223.562C117.188 222.497 118.484 220.686 119.478 218.129L120.81 214.667L91.4595 130.505H115.323L132.262 190.59H133.114L150.213 130.505H174.237L142.436 221.165C140.909 225.569 138.832 229.404 136.204 232.671C133.611 235.974 130.327 238.513 126.349 240.288C122.372 242.099 117.578 243.005 111.967 243.005Z" fill="black"/>
<path d="M220.179 213.921C211.799 213.921 204.59 212.146 198.553 208.594C192.551 205.008 187.935 200.036 184.703 193.68C181.507 187.323 179.909 180.008 179.909 171.734C179.909 163.353 181.525 156.002 184.757 149.681C188.024 143.325 192.658 138.371 198.659 134.82C204.661 131.233 211.799 129.44 220.073 129.44C227.211 129.44 233.461 130.736 238.823 133.328C244.185 135.92 248.429 139.56 251.554 144.248C254.679 148.935 256.401 154.44 256.721 160.761H235.307C234.703 156.677 233.105 153.392 230.513 150.906C227.956 148.385 224.6 147.124 220.446 147.124C216.93 147.124 213.858 148.083 211.23 150.001C208.638 151.883 206.614 154.635 205.158 158.257C203.702 161.879 202.974 166.265 202.974 171.414C202.974 176.634 203.684 181.073 205.105 184.731C206.561 188.389 208.603 191.176 211.23 193.094C213.858 195.011 216.93 195.97 220.446 195.97C223.038 195.97 225.364 195.438 227.424 194.372C229.519 193.307 231.241 191.762 232.591 189.738C233.975 187.678 234.881 185.21 235.307 182.334H256.721C256.365 188.584 254.661 194.088 251.607 198.847C248.588 203.57 244.416 207.263 239.089 209.926C233.762 212.589 227.459 213.921 220.179 213.921Z" fill="black"/>
</svg>
